<svg width="28" height="28" viewBox="0 0 28 28" fill="none" xmlns="http://www.w3.org/2000/svg">
<g clip-path="url(#clip0_117_483)">
<path d="M26.6776 7.18397C26.7897 7.18397 26.8972 7.13945 26.9764 7.0602C27.0557 6.98095 27.1002 6.87346 27.1002 6.76139V5.07104C27.1002 4.95897 27.0557 4.85148 26.9764 4.77223C26.8972 4.69298 26.7897 4.64846 26.6776 4.64846H25.9592L19.7282 0.493602C19.6587 0.44743 19.5771 0.422739 19.4937 0.422607H8.50644C8.42298 0.422739 8.34142 0.44743 8.2719 0.493602L2.04088 4.64846H1.32249C1.21041 4.64846 1.10292 4.69298 1.02367 4.77223C0.944425 4.85148 0.899902 4.95897 0.899902 5.07104V6.76139C0.899902 6.87346 0.944425 6.98095 1.02367 7.0602C1.10292 7.13945 1.21041 7.18397 1.32249 7.18397H1.74507V17.1363C1.48879 17.2838 1.27579 17.4961 1.12745 17.7519C0.979109 18.0077 0.900637 18.2981 0.899902 18.5938C0.899902 18.93 1.03347 19.2525 1.27122 19.4902C1.50897 19.728 1.83143 19.8615 2.16766 19.8615H5.54834C5.88457 19.8615 6.20703 19.728 6.44478 19.4902C6.68253 19.2525 6.8161 18.93 6.8161 18.5938C6.81564 18.4511 6.7969 18.3091 6.76031 18.1712H7.23868V19.4389C7.23868 19.551 7.2832 19.6585 7.36245 19.7378C7.4417 19.817 7.54919 19.8615 7.66127 19.8615H9.35161C9.46368 19.8615 9.57117 19.817 9.65042 19.7378C9.72967 19.6585 9.77419 19.551 9.77419 19.4389V18.1712H11.263L9.82617 21.7674C4.00083 22.4034 0.899902 24.349 0.899902 26.2003C0.899902 26.3124 0.944425 26.4199 1.02367 26.4991C1.10292 26.5784 1.21041 26.6229 1.32249 26.6229H6.39351C6.50559 26.6229 6.61307 26.5784 6.69232 26.4991C6.77157 26.4199 6.8161 26.3124 6.8161 26.2003C6.8161 25.3179 9.54895 24.0874 14 24.0874C18.4511 24.0874 21.184 25.3179 21.184 26.2003C21.184 26.3124 21.2285 26.4199 21.3078 26.4991C21.387 26.5784 21.4945 26.6229 21.6066 26.6229H26.6776C26.7897 26.6229 26.8972 26.5784 26.9764 26.4991C27.0557 26.4199 27.1002 26.3124 27.1002 26.2003C27.1002 24.349 23.9993 22.4034 18.1756 21.7674L16.7371 18.1712H18.2259V19.4389C18.2259 19.551 18.2704 19.6585 18.3497 19.7378C18.4289 19.817 18.5364 19.8615 18.6485 19.8615H20.3388C20.4509 19.8615 20.5584 19.817 20.6376 19.7378C20.7169 19.6585 20.7614 19.551 20.7614 19.4389V18.1712H21.2398C21.2032 18.3091 21.1844 18.4511 21.184 18.5938C21.184 18.93 21.3176 19.2525 21.5553 19.4902C21.7931 19.728 22.1155 19.8615 22.4517 19.8615H25.8324C26.1687 19.8615 26.4911 19.728 26.7289 19.4902C26.9666 19.2525 27.1002 18.93 27.1002 18.5938C27.0995 18.2981 27.021 18.0077 26.8726 17.7519C26.7243 17.4961 26.5113 17.2838 26.255 17.1363V7.18397H26.6776ZM26.255 6.3388H19.3246L18.1722 5.49363H26.255V6.3388ZM8.08385 8.87431V8.02914H19.9162V8.87431H8.08385ZM14 3.48212L19.0478 7.18397H17.0938L14.2456 5.14965C14.1739 5.0985 14.0881 5.071 14 5.071C13.912 5.071 13.8262 5.0985 13.7545 5.14965L10.9063 7.18397H8.95226L14 3.48212ZM15.6393 7.18397H12.3608L14 6.01299L15.6393 7.18397ZM8.63321 1.26778H19.3669L24.4379 4.64846H17.0198L14.2498 2.61709C14.1773 2.56401 14.0899 2.53539 14 2.53539C13.9102 2.53539 13.8227 2.56401 13.7503 2.61709L10.9803 4.64846H3.56219L8.63321 1.26778ZM1.74507 5.49363H9.82786L8.67547 6.3388H1.74507V5.49363ZM5.54834 19.0164H2.16766C2.05558 19.0164 1.9481 18.9718 1.86885 18.8926C1.7896 18.8133 1.74507 18.7058 1.74507 18.5938C1.74505 18.3718 1.83235 18.1587 1.98812 18.0006C2.14389 17.8424 2.35562 17.7519 2.57757 17.7486C2.58855 17.7486 2.63335 17.7554 2.64391 17.7558C2.71402 17.7611 2.78431 17.7484 2.84808 17.7188C2.91186 17.6892 2.96698 17.6437 3.00818 17.5868C3.05015 17.5306 3.07749 17.4649 3.08775 17.3956C3.098 17.3262 3.09084 17.2554 3.06692 17.1895C3.02378 17.0828 3.00573 16.9676 3.01415 16.8528C3.02258 16.738 3.05726 16.6266 3.11552 16.5273C3.17284 16.4165 3.25297 16.3191 3.35064 16.2414C3.44831 16.1638 3.56131 16.1077 3.6822 16.0769C3.88707 16.0319 4.10138 16.0676 4.28058 16.1766C4.34513 16.2141 4.41847 16.2339 4.49314 16.2339C4.56782 16.2339 4.64116 16.2141 4.7057 16.1766C4.88794 16.0656 5.10661 16.031 5.31423 16.0802C5.4728 16.1188 5.61726 16.2014 5.73096 16.3185C5.84467 16.4356 5.92302 16.5824 5.95698 16.742C5.98187 16.8703 5.97629 17.0026 5.9407 17.1284C5.9051 17.2541 5.84047 17.3697 5.75203 17.4659C5.68218 17.5435 5.64353 17.6442 5.64353 17.7486C5.64353 17.853 5.68218 17.9537 5.75203 18.0313C5.89246 18.185 5.97052 18.3856 5.97092 18.5938C5.97092 18.7058 5.9264 18.8133 5.84715 18.8926C5.7679 18.9718 5.66042 19.0164 5.54834 19.0164ZM6.7544 17.326C6.81988 17.0849 6.83085 16.8323 6.78651 16.5865C6.72265 16.2654 6.5681 15.9694 6.34117 15.7335C6.11423 15.4976 5.82442 15.3316 5.50608 15.2553C5.16762 15.1751 4.81238 15.2047 4.49188 15.3399C4.17919 15.2089 3.83367 15.1778 3.5026 15.2507C3.14599 15.3341 2.82593 15.5307 2.59024 15.811V7.18397H7.52266L7.41152 7.26553C7.35793 7.30479 7.31436 7.35613 7.28433 7.41538C7.2543 7.47463 7.23866 7.54013 7.23868 7.60656V17.326H6.7544ZM8.08385 19.0164V9.71948H8.92902V19.0164H8.08385ZM16.5356 17.326H15.6904V13.9453C15.6904 13.497 15.5123 13.0671 15.1953 12.7501C14.8783 12.4331 14.4483 12.255 14 12.255C13.5517 12.255 13.1218 12.4331 12.8048 12.7501C12.4878 13.0671 12.3097 13.497 12.3097 13.9453V17.326H11.4645V13.9453C11.4645 13.2729 11.7317 12.628 12.2072 12.1525C12.6827 11.677 13.3276 11.4098 14 11.4098C14.6725 11.4098 15.3174 11.677 15.7929 12.1525C16.2684 12.628 16.5356 13.2729 16.5356 13.9453V17.326ZM14.8452 17.326H13.1549V13.9453C13.1549 13.7212 13.2439 13.5062 13.4024 13.3477C13.5609 13.1892 13.7759 13.1002 14 13.1002C14.2242 13.1002 14.4392 13.1892 14.5977 13.3477C14.7562 13.5062 14.8452 13.7212 14.8452 13.9453V17.326ZM26.165 25.7777H21.9594C21.402 24.1296 17.5967 23.2422 14 23.2422C10.4034 23.2422 6.59804 24.1296 6.04065 25.7777H1.83508C2.54165 24.1017 7.3401 22.397 14 22.397C20.66 22.397 25.4584 24.1017 26.165 25.7777ZM17.2294 21.6786C16.2245 21.5971 15.1495 21.5519 14 21.5519C12.8506 21.5519 11.7756 21.5971 10.7706 21.6786L12.1732 18.1712H15.8269L17.2294 21.6786ZM17.3807 17.326V13.9453C17.3807 13.0487 17.0245 12.1888 16.3905 11.5548C15.7565 10.9208 14.8967 10.5647 14 10.5647C13.1034 10.5647 12.2435 10.9208 11.6095 11.5548C10.9755 12.1888 10.6194 13.0487 10.6194 13.9453V17.326H9.77419V9.71948H18.2259V17.326H17.3807ZM19.0711 19.0164V9.71948H19.9162V19.0164H19.0711ZM25.8324 19.0164H22.4517C22.3397 19.0164 22.2322 18.9718 22.1529 18.8926C22.0737 18.8133 22.0292 18.7058 22.0292 18.5938C22.0299 18.3854 22.1084 18.1848 22.2493 18.0313C22.3192 17.9537 22.3578 17.853 22.3578 17.7486C22.3578 17.6442 22.3192 17.5435 22.2493 17.4659C22.1609 17.3697 22.0963 17.2541 22.0607 17.1284C22.0251 17.0026 22.0195 16.8703 22.0444 16.742C22.0783 16.5824 22.1567 16.4356 22.2704 16.3185C22.3841 16.2014 22.5286 16.1188 22.6871 16.0802C22.7485 16.0657 22.8113 16.0583 22.8743 16.0583C23.0233 16.0591 23.1692 16.1 23.2969 16.1766C23.3615 16.2141 23.4348 16.2339 23.5095 16.2339C23.5842 16.2339 23.6575 16.2141 23.722 16.1766C23.9007 16.0678 24.1145 16.0322 24.3187 16.0773C24.4396 16.1081 24.5526 16.1642 24.6503 16.2418C24.748 16.3195 24.8281 16.4169 24.8854 16.5278C24.9437 16.627 24.9784 16.7384 24.9868 16.8532C24.9952 16.968 24.9772 17.0832 24.934 17.1899C24.9101 17.2558 24.9029 17.3266 24.9132 17.396C24.9234 17.4653 24.9508 17.531 24.9928 17.5872C25.034 17.6441 25.0891 17.6895 25.1529 17.7191C25.2166 17.7487 25.2869 17.7615 25.357 17.7562C25.3676 17.7562 25.3993 17.7503 25.4111 17.749C25.6353 17.749 25.8502 17.8381 26.0087 17.9966C26.1672 18.1551 26.2563 18.37 26.2563 18.5942C26.2562 18.6498 26.2452 18.7048 26.2239 18.7561C26.2025 18.8074 26.1713 18.854 26.1319 18.8932C26.0925 18.9324 26.0458 18.9635 25.9944 18.9846C25.943 19.0057 25.888 19.0165 25.8324 19.0164ZM25.4098 15.811C25.174 15.531 24.854 15.3348 24.4975 15.2515C24.1665 15.1779 23.8209 15.2088 23.5082 15.3399C23.1878 15.2045 22.8325 15.1748 22.494 15.2553C22.1757 15.3316 21.8859 15.4976 21.6589 15.7335C21.432 15.9694 21.2774 16.2654 21.2136 16.5865C21.1692 16.8323 21.1802 17.0849 21.2457 17.326H20.7614V7.60656C20.7614 7.54013 20.7458 7.47463 20.7158 7.41538C20.6857 7.35613 20.6422 7.30479 20.5886 7.26553L20.4774 7.18397H25.4098V15.811Z" fill="#373737"/>
<path d="M4.7033 8.02905C4.36707 8.02905 4.04461 8.16262 3.80686 8.40037C3.56911 8.63812 3.43555 8.96058 3.43555 9.29681V11.8323C3.43555 11.9444 3.48007 12.0519 3.55932 12.1311C3.63857 12.2104 3.74606 12.2549 3.85813 12.2549H5.54847C5.66055 12.2549 5.76804 12.2104 5.84729 12.1311C5.92654 12.0519 5.97106 11.9444 5.97106 11.8323V9.29681C5.97106 8.96058 5.83749 8.63812 5.59974 8.40037C5.36199 8.16262 5.03953 8.02905 4.7033 8.02905ZM5.12589 11.4097H4.28072V9.29681C4.28072 9.18473 4.32524 9.07725 4.40449 8.998C4.48374 8.91875 4.59123 8.87422 4.7033 8.87422C4.81538 8.87422 4.92287 8.91875 5.00212 8.998C5.08137 9.07725 5.12589 9.18473 5.12589 9.29681V11.4097Z" fill="#373737"/>
<path d="M22.4519 12.2549H24.1422C24.2543 12.2549 24.3618 12.2104 24.441 12.1311C24.5203 12.0519 24.5648 11.9444 24.5648 11.8323V9.29681C24.5648 8.96058 24.4312 8.63812 24.1935 8.40037C23.9557 8.16262 23.6333 8.02905 23.2971 8.02905C22.9608 8.02905 22.6384 8.16262 22.4006 8.40037C22.1629 8.63812 22.0293 8.96058 22.0293 9.29681V11.8323C22.0293 11.9444 22.0738 12.0519 22.1531 12.1311C22.2323 12.2104 22.3398 12.2549 22.4519 12.2549ZM22.8745 9.29681C22.8745 9.18473 22.919 9.07725 22.9982 8.998C23.0775 8.91875 23.185 8.87422 23.2971 8.87422C23.4091 8.87422 23.5166 8.91875 23.5959 8.998C23.6751 9.07725 23.7196 9.18473 23.7196 9.29681V11.4097H22.8745V9.29681Z" fill="#373737"/>
</g>
<defs>
<clipPath id="clip0_117_483">
<rect width="27.0455" height="27.0455" fill="white" transform="translate(0.477295)"/>
</clipPath>
</defs>
</svg>
